<?xml version="1.0" encoding="UTF-8"?>
<svg width="195px" height="68px" viewBox="0 0 195 68" version="1.1" xmlns="http://www.w3.org/2000/svg" xmlns:xlink="http://www.w3.org/1999/xlink">
    <!-- Generator: Sketch 52.2 (67145) - http://www.bohemiancoding.com/sketch -->
    <title>button-bg</title>
    <desc>Created with Sketch.</desc>
    <g id="Page-1" stroke="none" stroke-width="1" fill="none" fill-rule="evenodd" stroke-linecap="round">
        <g id="Desktop-HD-Copy-2" transform="translate(-628.000000, -499.000000)" fill="#9013FE" fill-rule="nonzero" stroke="#55029E" stroke-width="2">
            <g id="Group-6" transform="translate(629.000000, 499.000000)">
                <path d="M3.12184458,8.67844948 C2.21273904,14.5513595 0.574319348,20.3570433 0.394527976,26.2971797 C0.370212867,27.1005278 -3.16036597,63.5791119 11.3700373,64.2600641 C15.9875965,64.4764611 24.7301349,65.2370751 29.3518396,65.3294144 C42.6709449,65.5955234 51.5708411,65.2637564 64.8924427,65.3294144 C104.616751,65.5252032 144.698993,68.3416248 184.040786,62.8386798 C189.6311,62.0567328 190.491409,53.1819799 191.475136,47.6236221 C191.820299,45.6733488 196.077038,3.18552735 181.699571,2.50460718 C126.074937,-0.129788368 70.3171429,1.6286406 14.6386534,2.60113261 C11.9834454,2.64750902 9.70513135,4.56823258 7.23837033,5.55178256 L3.12184458,8.67844948 Z" id="button-bg"></path>
            </g>
        </g>
    </g>
</svg>