<?xml version="1.0" encoding="UTF-8"?>
<svg width="931px" height="11px" viewBox="0 0 931 11" version="1.1" xmlns="http://www.w3.org/2000/svg" xmlns:xlink="http://www.w3.org/1999/xlink">
    <!-- Generator: Sketch 52.2 (67145) - http://www.bohemiancoding.com/sketch -->
    <title>Path 5 Copy</title>
    <desc>Created with Sketch.</desc>
    <g id="Page-1" stroke="none" stroke-width="1" fill="none" fill-rule="evenodd">
        <g id="Desktop-HD-Copy-2" transform="translate(-245.000000, -691.000000)" fill-rule="nonzero" stroke="#979797">
            <path d="M245,697.199211 C339.42868,699.570467 433.402659,692.428686 527.810309,697.199211 C567.291184,699.194225 605.833972,690.65143 645.794366,692.185517 C732.594105,695.517776 641.156404,697.237797 735.098835,696.743897 C769.445689,696.563319 803.789861,694.075467 838.125545,694.96974 C853.059492,695.358694 867.662832,699.975043 882.589374,700.585287 C905.599844,701.526027 928.676873,700.880551 951.671593,699.611856 C954.710263,699.444202 957.204543,696.937322 960.181267,696.304283 C963.422645,695.614961 966.790523,695.74357 970.103985,695.691963 C979.899912,695.539391 989.711973,695.172933 999.49533,695.691963 C1068.4397,699.349622 1090.21525,699.751689 1175.8905,699.208876" id="Path-5-Copy" transform="translate(710.445248, 696.516505) rotate(-180.000000) translate(-710.445248, -696.516505) "></path>
        </g>
    </g>
</svg>