<?xml version="1.0" encoding="UTF-8"?>
<svg width="475px" height="71px" viewBox="0 0 475 71" version="1.1" xmlns="http://www.w3.org/2000/svg" xmlns:xlink="http://www.w3.org/1999/xlink">
    <!-- Generator: Sketch 52.2 (67145) - http://www.bohemiancoding.com/sketch -->
    <title>input-bg 4</title>
    <desc>Created with Sketch.</desc>
    <g id="Page-1" stroke="none" stroke-width="1" fill="none" fill-rule="evenodd" stroke-dasharray="5,5">
        <g id="Desktop-HD-Copy-2" transform="translate(-486.000000, -399.000000)" fill-rule="nonzero" stroke="#9013FE">
            <g id="Group-8" transform="translate(487.000000, 364.000000)">
                <path d="M16.4643865,37.8382654 C11.306581,39.3900131 4.18783844,38.15866 0.990969975,42.4935084 C-1.87171272,46.3752119 2.37454074,52.0699716 2.41191373,56.8929558 C2.49867951,68.0900799 1.13509764,79.2738017 1.36272851,90.4689479 C1.41419751,93.0002519 0.712621922,97.7951435 3.24423979,97.8277017 L5.41696192,100.318484 C24.2923838,100.561233 43.1683838,99.5359191 62.0213302,98.5836107 C63.8987367,98.4887783 65.6057613,97.1096016 67.4841154,97.1833202 C138.311947,99.9630576 80.7130645,101.769168 149.266863,100.73981 C182.504416,100.240738 215.730456,97.5543588 248.962177,98.3522943 C263.793388,98.7084103 278.269176,103.405044 293.08372,104.193034 C318.7616,105.558849 346.078307,102.55447 371.758153,101.696056 C397.596724,100.832336 422.706468,105.80302 448.224754,104.323149 C452.610388,104.068815 469.635692,105.305002 471.011487,95.3431154 C472.266243,86.2576524 469.83087,77.0070893 470.158508,67.8412448 C470.811303,49.5789347 474.628959,61.0230112 472.108175,43.6831357 C471.626909,40.3726224 470.417365,35.8416447 466.015465,36.0042566 C430.536122,37.3149093 395.159652,41.2525743 359.659478,41.74173 C296.038066,42.6183674 232.411634,40.0791958 168.784187,40.0997965 C145.222812,40.107425 121.681601,41.6176792 98.1211497,41.8264084 C78.9851704,41.9959398 59.3707249,38.2696472 40.1144256,37.8217428 L16.4643865,37.8382654 Z" id="input-bg-4"></path>
            </g>
        </g>
    </g>
</svg>